<svg class="main-svg" xmlns="http://www.w3.org/2000/svg" xmlns:xlink="http://www.w3.org/1999/xlink" width="900" height="400" style="" viewBox="0 0 900 400"><rect x="0" y="0" width="900" height="400" style="fill: rgb(255, 255, 255); fill-opacity: 1;"/><defs id="defs-50f1fd"><g class="clips"><clipPath id="clip50f1fdxyplot" class="plotclip"><rect width="740" height="328"/></clipPath><clipPath class="axesclip" id="clip50f1fdx"><rect x="80" y="0" width="740" height="400"/></clipPath><clipPath class="axesclip" id="clip50f1fdy"><rect x="0" y="20" width="900" height="328"/></clipPath><clipPath class="axesclip" id="clip50f1fdxy"><rect x="80" y="20" width="740" height="328"/></clipPath></g><g class="gradients"/><g class="patterns"/></defs><g class="bglayer"/><g class="layer-below"><g class="imagelayer"/><g class="shapelayer"/></g><g class="cartesianlayer"><g class="subplot xy"><g class="layer-subplot"><g class="shapelayer"/><g class="imagelayer"/></g><g class="minor-gridlayer"><g class="x"/><g class="y"/></g><g class="gridlayer"><g class="x"/><g class="y"/></g><g class="zerolinelayer"/><g class="layer-between"><g class="shapelayer"/><g class="imagelayer"/></g><path class="xlines-below"/><path class="ylines-below"/><g class="overlines-below"/><g class="xaxislayer-below"/><g class="yaxislayer-below"/><g class="overaxes-below"/><g class="plot" transform="translate(80,20)" clip-path="url(#clip50f1fdxyplot)"><g class="scatterlayer mlayer"><g class="trace scatter tracea42d40" style="stroke-miterlimit: 2; opacity: 1;"><g class="fills"/><g class="errorbars"/><g class="lines"><path class="js-line" d="M0,227.73L26.69,161.79L28.17,158.76L35.59,145.79L37.07,143.69L43,137.13L44.48,135.97L48.93,133.7L50.41,133.34L54.86,133.46L56.34,133.89L60.79,136.3L62.28,137.46L68.21,143.69L69.69,145.62L77.1,157.01L78.59,159.58L90.45,182.22L91.93,185.18L109.72,219.34L111.21,221.93L121.59,238.43L123.07,240.54L131.97,251.91L133.45,253.6L142.34,262.54L143.83,263.84L152.72,270.74L154.21,271.75L164.59,277.84L166.07,278.59L179.41,284.26L180.9,284.79L195.72,289.21L197.21,289.57L215,293.05L216.48,293.27L240.21,296.1L241.69,296.24L302.48,301.67L303.96,301.76L424.07,309.08L425.55,309.14L468.55,309.88L470.03,309.88L609.41,309.96L610.89,309.99L674.65,310.64L676.14,310.6L713.2,308.85L714.69,308.77L739.89,307.95" style="vector-effect: none; fill: none; stroke: rgb(102, 197, 204); stroke-opacity: 1; stroke-width: 3px; opacity: 1;"/></g><g class="points"/><g class="text"/></g><g class="trace scatter trace0c8a63" style="stroke-miterlimit: 2; opacity: 1;"><g class="fills"/><g class="errorbars"/><g class="lines"><path class="js-line" d="M53.15,250.74L72.42,248.04L73.8,247.91L91.69,246.9L93.07,246.88L110.96,247.36L112.34,247.46L131.61,249.59L132.98,249.8L155.01,254.01L156.38,254.32L182.54,261.14L183.91,261.53L230.71,275.85L232.09,276.28L272.01,287.77L273.38,288.13L306.42,295.8L307.79,296.08L339.45,301.55L340.83,301.75L369.73,305.23L371.11,305.37L406.9,308.02L408.27,308.09L446.82,309.34L448.19,309.36L490.86,309.24L492.24,309.21L539.04,307.46L540.41,307.38L581.71,304.57L583.08,304.46L702.84,295.09L704.21,295.03L740,294.37" style="vector-effect: none; fill: none; stroke: rgb(246, 207, 113); stroke-opacity: 1; stroke-width: 3px; opacity: 1;"/></g><g class="points"/><g class="text"/></g><g class="trace scatter trace3f5337" style="stroke-miterlimit: 2; opacity: 1;"><g class="fills"/><g class="errorbars"/><g class="lines"><path class="js-line" d="M3.4,249.16L31.45,219.54L32.92,218.16L44.73,208.3L46.21,207.24L55.06,201.86L56.54,201.13L65.39,197.86L66.87,197.5L74.25,196.51L75.72,196.47L83.1,197.07L84.58,197.34L93.44,199.99L94.91,200.59L103.77,205.03L105.24,205.9L117.05,213.92L118.53,215.03L136.24,229.49L137.71,230.75L167.23,254.98L168.71,256.08L184.94,267.23L186.42,268.15L202.66,277.12L204.13,277.84L220.37,284.74L221.84,285.28L238.08,290.42L239.55,290.82L258.74,295.21L260.22,295.49L283.83,299.23L285.31,299.43L317.78,302.65L319.26,302.75L347.3,303.94L348.77,303.97L378.29,303.66L379.77,303.61L434.38,301.39L435.86,301.34L472.75,301.08L474.23,301.1L518.51,302.43L519.98,302.49L605.59,305.26L607.07,305.28L732.52,307.01L734,307.08L739.9,307.34" style="vector-effect: none; fill: none; stroke: rgb(248, 156, 116); stroke-opacity: 1; stroke-width: 3px; opacity: 1;"/></g><g class="points"/><g class="text"/></g><g class="trace scatter trace717cd4" style="stroke-miterlimit: 2; opacity: 1;"><g class="fills"/><g class="errorbars"/><g class="lines"><path class="js-line" d="M54.6,290.94L74.45,271.62L75.77,270.66L81.07,267.73L82.39,267.24L87.68,266.33L89,266.36L94.3,267.52L95.62,268.05L102.23,271.83L103.56,272.76L127.37,290.45L128.7,291.15L136.63,294.34L137.96,294.71L145.9,295.97L147.22,296.03L155.16,295.65L156.48,295.46L165.74,293.17L167.06,292.7L175,289.03L176.33,288.26L184.26,282.52L185.59,281.36L192.2,274.44L193.53,272.83L200.14,263.5L201.46,261.37L209.4,246.83L210.72,244.12L219.99,223.25L221.31,220.05L249.09,152.51L250.42,149.86L257.03,138.35L258.36,136.46L263.65,130.49L264.97,129.42L268.94,127.27L270.26,126.91L274.23,126.95L275.55,127.32L279.52,129.49L280.85,130.55L286.14,136.35L287.46,138.16L294.08,149.03L295.4,151.51L304.66,170.99L305.99,173.98L333.77,236.66L335.09,239.28L344.35,255.91L345.68,258.03L354.94,271.04L356.26,272.65L364.2,281.03L365.52,282.24L374.78,289.34L376.11,290.19L386.69,295.73L388.01,296.3L401.25,300.89L402.57,301.27L419.77,305.38L421.09,305.64L436.97,307.97L438.29,308.1L456.81,308.91L458.14,308.93L489.89,310.16L491.21,310.23L520.32,310.81L521.64,310.81L558.69,311.26L560.01,311.28L606.32,311.6L607.64,311.6L714.81,310.85" style="vector-effect: none; fill: none; stroke: rgb(220, 176, 242); stroke-opacity: 1; stroke-width: 3px; opacity: 1;"/></g><g class="points"/><g class="text"/></g><g class="trace scatter trace7909b5" style="stroke-miterlimit: 2; opacity: 1;"><g class="fills"/><g class="errorbars"/><g class="lines"><path class="js-line" d="M10.82,232.67L18.21,183.15L18.73,179.37L35.08,66.51L35.61,63.46L41.41,35.15L41.94,33.13L45.63,22.02L46.16,20.9L48.8,17.15L49.33,16.77L51.44,16.53L51.96,16.78L54.07,18.99L54.6,19.84L57.24,25.72L57.77,27.2L61.99,42.16L62.51,44.36L69.37,76.87L69.9,79.55L84.14,147.8L84.67,150.02L93.11,182.19L93.63,184L102.07,209.89L102.6,211.31L109.46,227.6L109.99,228.67L115.79,238.61L116.32,239.35L121.06,244.79L121.59,245.27L126.87,249L127.39,249.28L136.36,253.21L136.89,253.44L144.27,257.7L144.8,258.08L152.71,264.76L153.24,265.24L165.37,275.47L165.9,275.84L177.5,282.86L178.03,283.17L190.16,291.13L190.69,291.51L203.88,300.12L204.41,300.38L211.26,303.07L211.79,303.21L219.18,304.34L219.7,304.37L229.2,304L229.73,303.95L253.99,302.27L254.52,302.29L264.54,303.39L265.07,303.49L274.03,305.76" style="vector-effect: none; fill: none; stroke: rgb(135, 197, 95); stroke-opacity: 1; stroke-width: 3px; opacity: 1;"/></g><g class="points"/><g class="text"/></g></g></g><g class="overplot"/><path class="xlines-above crisp" d="M80,348.5H820" style="fill: none; stroke-width: 1px; stroke: rgb(36, 36, 36); stroke-opacity: 1;"/><path class="ylines-above crisp" d="M80.5,20v328" style="fill: none; stroke-width: 1px; stroke: rgb(36, 36, 36); stroke-opacity: 1;"/><g class="overlines-above"/><g class="xaxislayer-above"><path class="xtick ticks crisp" d="M0,349v5" transform="translate(216.6,0)" style="stroke: rgb(68, 68, 68); stroke-opacity: 1; stroke-width: 1px;"/><path class="xtick ticks crisp" d="M0,349v5" transform="translate(361.22,0)" style="stroke: rgb(68, 68, 68); stroke-opacity: 1; stroke-width: 1px;"/><path class="xtick ticks crisp" d="M0,349v5" transform="translate(505.85,0)" style="stroke: rgb(68, 68, 68); stroke-opacity: 1; stroke-width: 1px;"/><path class="xtick ticks crisp" d="M0,349v5" transform="translate(650.47,0)" style="stroke: rgb(68, 68, 68); stroke-opacity: 1; stroke-width: 1px;"/><path class="xtick ticks crisp" d="M0,349v5" transform="translate(795.09,0)" style="stroke: rgb(68, 68, 68); stroke-opacity: 1; stroke-width: 1px;"/><g class="xtick"><text text-anchor="middle" x="0" y="370.8" transform="translate(216.6,0)" style="font-family: 'Open Sans', verdana, arial, sans-serif; font-size: 14px; fill: rgb(36, 36, 36); fill-opacity: 1; white-space: pre; opacity: 1;">2k</text></g><g class="xtick"><text text-anchor="middle" x="0" y="370.8" style="font-family: 'Open Sans', verdana, arial, sans-serif; font-size: 14px; fill: rgb(36, 36, 36); fill-opacity: 1; white-space: pre; opacity: 1;" transform="translate(361.22,0)">4k</text></g><g class="xtick"><text text-anchor="middle" x="0" y="370.8" style="font-family: 'Open Sans', verdana, arial, sans-serif; font-size: 14px; fill: rgb(36, 36, 36); fill-opacity: 1; white-space: pre; opacity: 1;" transform="translate(505.85,0)">6k</text></g><g class="xtick"><text text-anchor="middle" x="0" y="370.8" style="font-family: 'Open Sans', verdana, arial, sans-serif; font-size: 14px; fill: rgb(36, 36, 36); fill-opacity: 1; white-space: pre; opacity: 1;" transform="translate(650.47,0)">8k</text></g><g class="xtick"><text text-anchor="middle" x="0" y="370.8" style="font-family: 'Open Sans', verdana, arial, sans-serif; font-size: 14px; fill: rgb(36, 36, 36); fill-opacity: 1; white-space: pre; opacity: 1;" transform="translate(795.09,0)">10k</text></g></g><g class="yaxislayer-above"><path class="ytick ticks crisp" d="M80,0h-5" transform="translate(0,331.6)" style="stroke: rgb(68, 68, 68); stroke-opacity: 1; stroke-width: 1px;"/><path class="ytick ticks crisp" d="M80,0h-5" transform="translate(0,293.91)" style="stroke: rgb(68, 68, 68); stroke-opacity: 1; stroke-width: 1px;"/><path class="ytick ticks crisp" d="M80,0h-5" transform="translate(0,256.22)" style="stroke: rgb(68, 68, 68); stroke-opacity: 1; stroke-width: 1px;"/><path class="ytick ticks crisp" d="M80,0h-5" transform="translate(0,218.52)" style="stroke: rgb(68, 68, 68); stroke-opacity: 1; stroke-width: 1px;"/><path class="ytick ticks crisp" d="M80,0h-5" transform="translate(0,180.83)" style="stroke: rgb(68, 68, 68); stroke-opacity: 1; stroke-width: 1px;"/><path class="ytick ticks crisp" d="M80,0h-5" transform="translate(0,143.14)" style="stroke: rgb(68, 68, 68); stroke-opacity: 1; stroke-width: 1px;"/><path class="ytick ticks crisp" d="M80,0h-5" transform="translate(0,105.45)" style="stroke: rgb(68, 68, 68); stroke-opacity: 1; stroke-width: 1px;"/><path class="ytick ticks crisp" d="M80,0h-5" transform="translate(0,67.75)" style="stroke: rgb(68, 68, 68); stroke-opacity: 1; stroke-width: 1px;"/><path class="ytick ticks crisp" d="M80,0h-5" transform="translate(0,30.060000000000002)" style="stroke: rgb(68, 68, 68); stroke-opacity: 1; stroke-width: 1px;"/><g class="ytick"><text text-anchor="end" x="72.2" y="4.8999999999999995" transform="translate(0,331.6)" style="font-family: 'Open Sans', verdana, arial, sans-serif; font-size: 14px; fill: rgb(36, 36, 36); fill-opacity: 1; white-space: pre; opacity: 1;">0</text></g><g class="ytick"><text text-anchor="end" x="72.2" y="4.8999999999999995" style="font-family: 'Open Sans', verdana, arial, sans-serif; font-size: 14px; fill: rgb(36, 36, 36); fill-opacity: 1; white-space: pre; opacity: 1;" transform="translate(0,293.91)">0.05</text></g><g class="ytick"><text text-anchor="end" x="72.2" y="4.8999999999999995" style="font-family: 'Open Sans', verdana, arial, sans-serif; font-size: 14px; fill: rgb(36, 36, 36); fill-opacity: 1; white-space: pre; opacity: 1;" transform="translate(0,256.22)">0.1</text></g><g class="ytick"><text text-anchor="end" x="72.2" y="4.8999999999999995" style="font-family: 'Open Sans', verdana, arial, sans-serif; font-size: 14px; fill: rgb(36, 36, 36); fill-opacity: 1; white-space: pre; opacity: 1;" transform="translate(0,218.52)">0.15</text></g><g class="ytick"><text text-anchor="end" x="72.2" y="4.8999999999999995" style="font-family: 'Open Sans', verdana, arial, sans-serif; font-size: 14px; fill: rgb(36, 36, 36); fill-opacity: 1; white-space: pre; opacity: 1;" transform="translate(0,180.83)">0.2</text></g><g class="ytick"><text text-anchor="end" x="72.2" y="4.8999999999999995" style="font-family: 'Open Sans', verdana, arial, sans-serif; font-size: 14px; fill: rgb(36, 36, 36); fill-opacity: 1; white-space: pre; opacity: 1;" transform="translate(0,143.14)">0.25</text></g><g class="ytick"><text text-anchor="end" x="72.2" y="4.8999999999999995" style="font-family: 'Open Sans', verdana, arial, sans-serif; font-size: 14px; fill: rgb(36, 36, 36); fill-opacity: 1; white-space: pre; opacity: 1;" transform="translate(0,105.45)">0.3</text></g><g class="ytick"><text text-anchor="end" x="72.2" y="4.8999999999999995" style="font-family: 'Open Sans', verdana, arial, sans-serif; font-size: 14px; fill: rgb(36, 36, 36); fill-opacity: 1; white-space: pre; opacity: 1;" transform="translate(0,67.75)">0.35</text></g><g class="ytick"><text text-anchor="end" x="72.2" y="4.8999999999999995" style="font-family: 'Open Sans', verdana, arial, sans-serif; font-size: 14px; fill: rgb(36, 36, 36); fill-opacity: 1; white-space: pre; opacity: 1;" transform="translate(0,30.060000000000002)">0.4</text></g></g><g class="overaxes-above"/></g></g><g class="polarlayer"/><g class="smithlayer"/><g class="ternarylayer"/><g class="geolayer"/><g class="funnelarealayer"/><g class="pielayer"/><g class="iciclelayer"/><g class="treemaplayer"/><g class="sunburstlayer"/><g class="glimages"/><defs id="topdefs-50f1fd"><g class="clips"/><clipPath id="legend50f1fd"><rect width="142" height="124" x="0" y="0"/></clipPath></defs><g class="layer-above"><g class="imagelayer"/><g class="shapelayer"/></g><g class="infolayer"><g class="legend" pointer-events="all" transform="translate(692.8000000000001,20)"><rect class="bg" shape-rendering="crispEdges" width="142" height="124" x="0" y="0" style="stroke: rgb(68, 68, 68); stroke-opacity: 1; fill: rgb(255, 255, 255); fill-opacity: 1; stroke-width: 0px;"/><g class="scrollbox" transform="" clip-path="url(#legend50f1fd)"><text class="legendtitletext" text-anchor="start" x="2" y="18.2" style="font-family: 'Open Sans', verdana, arial, sans-serif; font-size: 14px; fill: rgb(36, 36, 36); fill-opacity: 1; white-space: pre;">Dataset</text><g class="groups"><g class="traces" transform="translate(0,32.7)" style="opacity: 1;"><text class="legendtext" text-anchor="start" x="40" y="4.680000000000001" style="font-family: 'Open Sans', verdana, arial, sans-serif; font-size: 12px; fill: rgb(36, 36, 36); fill-opacity: 1; white-space: pre;">LUMIERE</text><g class="layers" style="opacity: 1;"><g class="legendfill"/><g class="legendlines"><path class="js-line" d="M5,0h30" style="fill: none; stroke: rgb(135, 197, 95); stroke-opacity: 1; stroke-width: 3px;"/></g><g class="legendsymbols"><g class="legendpoints"/></g></g><rect class="legendtoggle" x="0" y="-9.5" width="136.46875" height="19" style="fill: rgb(0, 0, 0); fill-opacity: 0;"/></g><g class="traces" transform="translate(0,51.7)" style="opacity: 1;"><text class="legendtext" text-anchor="start" x="40" y="4.680000000000001" style="font-family: 'Open Sans', verdana, arial, sans-serif; font-size: 12px; fill: rgb(36, 36, 36); fill-opacity: 1; white-space: pre;">UCSF</text><g class="layers" style="opacity: 1;"><g class="legendfill"/><g class="legendlines"><path class="js-line" d="M5,0h30" style="fill: none; stroke: rgb(220, 176, 242); stroke-opacity: 1; stroke-width: 3px;"/></g><g class="legendsymbols"><g class="legendpoints"/></g></g><rect class="legendtoggle" x="0" y="-9.5" width="136.46875" height="19" style="fill: rgb(0, 0, 0); fill-opacity: 0;"/></g><g class="traces" transform="translate(0,70.7)" style="opacity: 1;"><text class="legendtext" text-anchor="start" x="40" y="4.680000000000001" style="font-family: 'Open Sans', verdana, arial, sans-serif; font-size: 12px; fill: rgb(36, 36, 36); fill-opacity: 1; white-space: pre;">BraTS2024_PED</text><g class="layers" style="opacity: 1;"><g class="legendfill"/><g class="legendlines"><path class="js-line" d="M5,0h30" style="fill: none; stroke: rgb(248, 156, 116); stroke-opacity: 1; stroke-width: 3px;"/></g><g class="legendsymbols"><g class="legendpoints"/></g></g><rect class="legendtoggle" x="0" y="-9.5" width="136.46875" height="19" style="fill: rgb(0, 0, 0); fill-opacity: 0;"/></g><g class="traces" transform="translate(0,89.7)" style="opacity: 1;"><text class="legendtext" text-anchor="start" x="40" y="4.680000000000001" style="font-family: 'Open Sans', verdana, arial, sans-serif; font-size: 12px; fill: rgb(36, 36, 36); fill-opacity: 1; white-space: pre;">BraTS2024_SSA</text><g class="layers" style="opacity: 1;"><g class="legendfill"/><g class="legendlines"><path class="js-line" d="M5,0h30" style="fill: none; stroke: rgb(246, 207, 113); stroke-opacity: 1; stroke-width: 3px;"/></g><g class="legendsymbols"><g class="legendpoints"/></g></g><rect class="legendtoggle" x="0" y="-9.5" width="136.46875" height="19" style="fill: rgb(0, 0, 0); fill-opacity: 0;"/></g><g class="traces" transform="translate(0,108.7)" style="opacity: 1;"><text class="legendtext" text-anchor="start" x="40" y="4.680000000000001" style="font-family: 'Open Sans', verdana, arial, sans-serif; font-size: 12px; fill: rgb(36, 36, 36); fill-opacity: 1; white-space: pre;">BraTS2020</text><g class="layers" style="opacity: 1;"><g class="legendfill"/><g class="legendlines"><path class="js-line" d="M5,0h30" style="fill: none; stroke: rgb(102, 197, 204); stroke-opacity: 1; stroke-width: 3px;"/></g><g class="legendsymbols"><g class="legendpoints"/></g></g><rect class="legendtoggle" x="0" y="-9.5" width="136.46875" height="19" style="fill: rgb(0, 0, 0); fill-opacity: 0;"/></g></g></g><rect class="scrollbar" rx="20" ry="3" width="0" height="0" x="0" y="0" style="fill: rgb(128, 139, 164); fill-opacity: 1;"/></g><g class="g-gtitle"/><g class="g-xtitle" transform="translate(0,-3.5124999999999886)"><text class="xtitle" x="450" y="399.5125" text-anchor="middle" style="font-family: 'Open Sans', verdana, arial, sans-serif; font-size: 16px; fill: rgb(36, 36, 36); opacity: 1; white-space: pre;">T1 Max Intensity</text></g><g class="g-ytitle"><text class="ytitle" transform="rotate(-90,19.915625,184)" x="19.915625" y="184" text-anchor="middle" style="font-family: 'Open Sans', verdana, arial, sans-serif; font-size: 16px; fill: rgb(36, 36, 36); opacity: 1; white-space: pre;">Density</text></g></g></svg>